<svg id="Layer_1" data-name="Layer 1" xmlns="http://www.w3.org/2000/svg" viewBox="0 0 500 132"><defs><style>.cls-1{fill:#fff;}</style></defs><title>Artboard 1</title><path class="cls-1" d="M127.32,38.73V37.51H140.5q3.67,0,7.25-.13t7.25-.14a39.92,39.92,0,0,1,7.2.7,23.27,23.27,0,0,1,6.94,2.4,15.14,15.14,0,0,1,5.2,4.59,12.19,12.19,0,0,1,2.05,7.24,11,11,0,0,1-1.57,6,12.88,12.88,0,0,1-4.06,4.06,20.14,20.14,0,0,1-5.54,2.41,34.85,34.85,0,0,1-6,1.09v.44q4.28.78,7.64,1.57a18.42,18.42,0,0,1,5.8,2.36,11.07,11.07,0,0,1,3.89,4.36,19.71,19.71,0,0,1,1.79,7.51q.44,5.5.7,8.82a31.34,31.34,0,0,0,.74,5.15,4.29,4.29,0,0,0,1.31,2.44,4,4,0,0,0,2.4.61,4.21,4.21,0,0,0,2.88-1c.76-.67,1.42-1.3,2-1.88l.87.79q-.87.87-1.7,1.62a8.13,8.13,0,0,1-1.92,1.26,10.87,10.87,0,0,1-2.66.83,20.84,20.84,0,0,1-3.93.31,15.37,15.37,0,0,1-7.51-1.53,10.34,10.34,0,0,1-4-3.79,12.69,12.69,0,0,1-1.62-4.94q-.3-2.66-.39-5Q165.3,82,165,78.67a19.4,19.4,0,0,0-1.44-6,9.69,9.69,0,0,0-3.41-4.19,11.12,11.12,0,0,0-6.37-1.57H148V98.44h8v1.22H127.32V98.44h8V38.73Zm24.27,27a15,15,0,0,0,6.19-1,7.73,7.73,0,0,0,3.41-2.84,10,10,0,0,0,1.44-4.06,34.26,34.26,0,0,0,.31-4.63,35.76,35.76,0,0,0-.53-6.59A11.88,11.88,0,0,0,160.67,42a7.28,7.28,0,0,0-3.36-2.66,14.65,14.65,0,0,0-5.46-.88c-.64,0-1.28,0-1.92.09l-1.92.18v27Z"/><polygon class="cls-1" points="212.7 37.51 227.81 80.98 227.98 80.98 243.34 37.51 265.17 37.51 265.17 38.73 257.14 38.73 257.14 98.44 265.17 98.44 265.17 99.67 236.53 99.67 236.53 98.44 244.48 98.44 244.48 38.73 244.3 38.73 222.83 99.67 221.43 99.67 199.87 38.73 199.69 38.73 199.69 98.44 207.72 98.44 207.72 99.67 190.26 99.67 190.26 98.44 198.29 98.44 198.29 38.73 190.26 38.73 190.26 37.51 212.7 37.51"/><path class="cls-1" d="M273.29,98.44l26-63.38h2.35l27.5,63.38h7.5v1.22H307.33V98.44h8.12L305.33,75h-21l-9.68,23.4h7.76v1.22H266V98.44Zm11.52-24.62h20.08L294.59,50Z"/><rect class="cls-1" x="349.72" y="34.92" width="1.93" height="64.74"/><path class="cls-1" d="M374.13,39.28a3.74,3.74,0,0,1-2.75,3.84l3,6.05h-1.5l-2.79-5.78h-3.77v5.78H365V35.26h4.8c2.89,0,4.32,1.83,4.32,4m-4.55,2.92c2.07,0,3.21-1,3.21-2.84s-1.23-2.91-3.16-2.91h-3.32V42.2Z"/><path class="cls-1" d="M377.17,41.13c0-3.84,2.1-6.19,5.43-6.19s5.42,2.36,5.42,6.2v2.25c0,3.83-2.1,6.08-5.45,6.08s-5.4-2.25-5.4-6.08Zm1.3,2.28c0,3.18,1.7,4.88,4.12,4.88s4.13-1.71,4.13-4.88v-2.3c0-3.18-1.7-5-4.13-5s-4.12,1.8-4.12,5Z"/><polygon class="cls-1" points="394.29 49.17 394.29 43.02 389.57 35.26 391.07 35.26 394.89 41.73 394.98 41.73 398.79 35.26 400.29 35.26 395.58 43.01 395.58 49.17 394.29 49.17"/><path class="cls-1" d="M400.09,49.16l5-13.91h1.3l5,13.91H410l-1.53-4.45H403l-1.53,4.45Zm5.58-12.31-2.34,6.79h4.74l-2.34-6.79Z"/><polygon class="cls-1" points="422.01 49.17 414.02 49.17 414.02 35.26 415.33 35.26 415.33 47.99 422.01 47.99 422.01 49.17"/><polygon class="cls-1" points="432.81 49.17 424.69 49.17 424.69 35.26 432.81 35.26 432.81 36.45 426 36.45 426 41.46 432.45 41.46 432.45 42.64 426 42.64 426 47.99 432.81 47.99 432.81 49.17"/><polygon class="cls-1" points="365.06 74.26 365.06 60.34 366.31 60.34 371.25 71.8 371.29 71.8 376.21 60.34 377.47 60.34 377.47 74.26 376.28 74.26 376.28 63.2 376.21 63.2 371.86 73.19 370.68 73.19 366.31 63.2 366.24 63.2 366.24 74.26 365.06 74.26"/><path class="cls-1" d="M380.17,74.26l5-13.91h1.3l5,13.91h-1.4l-1.53-4.45H383l-1.53,4.45Zm5.58-12.31-2.34,6.79h4.74l-2.34-6.79Z"/><path class="cls-1" d="M403.22,64.37a3.74,3.74,0,0,1-2.75,3.84l3,6.05H402l-2.8-5.79h-3.76v5.79h-1.3V60.35h4.8c2.89,0,4.32,1.83,4.32,4m-4.55,2.92c2.06,0,3.2-1.05,3.2-2.84s-1.22-2.92-3.15-2.92h-3.32v5.76Z"/><path class="cls-1" d="M406.25,66.23c0-3.84,2.1-6.19,5.43-6.19s5.42,2.36,5.42,6.19v2.25c0,3.83-2.1,6.08-5.45,6.08s-5.4-2.25-5.4-6.08Zm1.3,2.28c0,3.18,1.69,4.88,4.12,4.88s4.13-1.71,4.13-4.88v-2.3c0-3.18-1.7-5-4.13-5s-4.12,1.81-4.12,5Z"/><path class="cls-1" d="M421.44,68.47c0,3.09,1.46,4.92,4.09,4.92,2.34,0,3.66-1.46,3.66-3.15h1.29c0,2-1.63,4.32-5,4.32s-5.33-2.32-5.33-6.12V66.22c0-3.73,1.95-6.18,5.32-6.18a4.62,4.62,0,0,1,5,4.49h-1.28a3.47,3.47,0,0,0-3.69-3.32c-2.53,0-4,1.92-4,5Z"/><path class="cls-1" d="M432.45,74.26l5-13.91h1.3l5,13.91h-1.4l-1.53-4.45h-5.48l-1.53,4.45ZM438,61.95l-2.34,6.79h4.74l-2.34-6.79Z"/><rect class="cls-1" x="446.46" y="60.34" width="1.3" height="13.91"/><polygon class="cls-1" points="451.93 74.26 451.93 60.34 453.25 60.34 460.72 72.01 460.79 72.01 460.79 60.34 462.09 60.34 462.09 74.26 460.78 74.26 453.3 62.59 453.24 62.59 453.24 74.26 451.93 74.26"/><polygon class="cls-1" points="474.32 74.26 466.2 74.26 466.2 60.34 474.32 60.34 474.32 61.54 467.5 61.54 467.5 66.55 473.96 66.55 473.96 67.73 467.5 67.73 467.5 73.08 474.32 73.08 474.32 74.26"/><path class="cls-1" d="M369.13,85.43c4.46,0,6.15,2.86,6.15,7s-1.6,6.95-6.15,6.95H365V85.43Zm-2.81,12.73h2.77c3.4,0,4.85-2.16,4.85-5.77s-1.41-5.78-4.85-5.78h-2.77Z"/><polygon class="cls-1" points="378.13 90.5 379.14 85.43 380.71 85.43 379.23 90.5 378.13 90.5"/><path class="cls-1" d="M381,99.35l5-13.91h1.29l5,13.91h-1.4l-1.54-4.45h-5.48l-1.53,4.45ZM386.57,87l-2.35,6.79H389L386.63,87Z"/><path class="cls-1" d="M395.2,95.7c.1,1.35,1.22,2.76,3.71,2.76,2.13,0,3.52-1.08,3.52-2.73,0-1.4-.9-2.09-2.68-2.57l-2.22-.58c-1.73-.47-3.2-1.5-3.2-3.58,0-2.46,2.11-3.89,4.63-3.89s4.56,1.34,4.62,3.77h-1.32c-.1-1.34-1.12-2.57-3.33-2.57-1.95,0-3.28,1-3.28,2.61,0,1.25.76,2,2.27,2.4l2.16.59c2.26.62,3.68,1.54,3.68,3.74,0,2.61-2.19,4-5,4-3.59,0-4.83-2.25-4.87-4Z"/><path class="cls-1" d="M407.39,95.7c.1,1.35,1.22,2.76,3.7,2.76,2.13,0,3.53-1.08,3.53-2.73,0-1.4-.9-2.09-2.69-2.57l-2.22-.58c-1.72-.47-3.19-1.5-3.19-3.58,0-2.46,2.11-3.89,4.64-3.89s4.56,1.34,4.61,3.77h-1.31c-.1-1.34-1.13-2.57-3.33-2.57-1.95,0-3.28,1-3.28,2.61,0,1.25.76,2,2.27,2.4l2.16.59c2.26.62,3.68,1.54,3.68,3.74,0,2.61-2.19,4-5,4-3.59,0-4.83-2.25-4.87-4Z"/><path class="cls-1" d="M420.32,94.53a3.83,3.83,0,1,0,7.65,0V85.44h1.29v9.09a5.12,5.12,0,1,1-10.23,0V85.44h1.29Z"/><path class="cls-1" d="M442.3,89.46a3.74,3.74,0,0,1-2.75,3.84l3,6.05H441l-2.79-5.79h-3.76v5.79h-1.31V85.44H438c2.89,0,4.32,1.83,4.32,4m-4.54,2.92c2.06,0,3.21-1.06,3.21-2.84s-1.23-2.92-3.16-2.92h-3.32v5.76Z"/><path class="cls-1" d="M444.46,99.35l5-13.91h1.3l5,13.91h-1.4l-1.53-4.45h-5.48l-1.53,4.45ZM450,87l-2.34,6.79h4.74L450.11,87Z"/><polygon class="cls-1" points="458.4 99.35 458.4 85.44 459.72 85.44 467.19 97.1 467.26 97.1 467.26 85.44 468.56 85.44 468.56 99.35 467.25 99.35 459.77 87.69 459.71 87.69 459.71 99.35 458.4 99.35"/><path class="cls-1" d="M473.42,93.56c0,3.08,1.45,4.91,4.08,4.91,2.34,0,3.66-1.46,3.66-3.14h1.28c0,2-1.62,4.32-5,4.32s-5.33-2.32-5.33-6.12V91.3c0-3.72,1.95-6.17,5.32-6.17a4.62,4.62,0,0,1,5,4.49h-1.29a3.47,3.47,0,0,0-3.69-3.32c-2.53,0-4,1.92-4,5Z"/><polygon class="cls-1" points="494 99.35 485.88 99.35 485.88 85.44 494 85.44 494 86.63 487.18 86.63 487.18 91.64 493.63 91.64 493.63 92.82 487.18 92.82 487.18 98.17 494 98.17 494 99.35"/><path class="cls-1" d="M60.48,12.82a53.24,53.24,0,1,0,53.24,53.24A53.3,53.3,0,0,0,60.48,12.82m0,98.64a45.4,45.4,0,1,1,45.4-45.4,45.46,45.46,0,0,1-45.4,45.4"/><path class="cls-1" d="M60.25,23.85a42.21,42.21,0,1,0,42.21,42.21A42.26,42.26,0,0,0,60.25,23.85m0,83.72a41.51,41.51,0,1,1,41.5-41.51,41.56,41.56,0,0,1-41.5,41.51"/><path class="cls-1" d="M43.53,38.5c4.68-7.28,13.58-8,13.58-8C48.87,27.92,40.28,35,40.28,35Z"/><path class="cls-1" d="M38,74.25l-1.57-7C31.33,67.81,26,76.82,26,76.82c-2.18-4.6-.09-13-.09-13a32.58,32.58,0,0,0-4.29,10.51,39.45,39.45,0,0,0,4.57,11.84c1.5-12.38,8.47-16.07,8.47-16.07-9.52,12.57-1.38,24.75-1.38,24.75C31,85,38,74.25,38,74.25"/><path class="cls-1" d="M27.64,70.9s7.28-5.44,9.39-5.44c0,0-5.09-1.15-7.78,1.27,0,0-.31-2,2.6-8.93,0,0-5.21,6-4.21,13.11"/><path class="cls-1" d="M34.64,62.24A19.28,19.28,0,0,1,39,52.45s-5.8,2.19-7.82,11.25c0,0,5.52-.69,6.75.38,0,0-1.26-2.18-3.28-1.84"/><path class="cls-1" d="M36.58,43.45c-13.21,8.61-9.68,22.82-9.68,22.82C28.09,56.2,38.56,49.08,38.56,49.08l.66-.48S47.46,43.78,47.45,37c0,0-2.37,5.36-8.28,4.37-5.68-1.17-13,5.47-13,5.47s0-.29,0-.43A39.32,39.32,0,0,0,21.3,60.09c5.53-15.25,15.28-16.64,15.28-16.64"/><path class="cls-1" d="M81.76,41.36c-5.91,1-8.28-4.37-8.28-4.37,0,6.79,8.23,11.61,8.23,11.61l.66.48S92.84,56.19,94,66.28c0,0,3.53-14.22-9.68-22.82,0,0,9.75,1.38,15.28,16.63A39.39,39.39,0,0,0,94.79,46.4c0,.15,0,.29,0,.43s-7.32-6.64-13-5.47"/><path class="cls-1" d="M39.87,39.42s-3.77-2.39-7-1.67a38.68,38.68,0,0,0-3.19,3.46c1.9-.56,8.47-2.4,10.16-1.79"/><path class="cls-1" d="M38,35.51s.79-2,5.57-4.29a13.48,13.48,0,0,0-3.53,1,12.32,12.32,0,0,0-4.15,2.9c-.2.21-.39.44-.57.67a47.38,47.38,0,0,1,7.23,4S40.29,35.86,38,35.51"/><path class="cls-1" d="M79.3,95.59a19,19,0,0,0-4.08-13.53,11.32,11.32,0,0,1-1.61,6.15,10.62,10.62,0,0,1-.34,10.46c1-2.19-.41-5.8-.41-5.8C69.82,99,65,99,65,99s-4.61,5.65-9,0c0,0-4.85-.08-7.89-6.17,0,0-1.38,3.61-.41,5.8a10.64,10.64,0,0,1-.35-10.46,11.29,11.29,0,0,1-1.6-6.15,19,19,0,0,0-4.08,13.53s-4.68-8.74-1.84-17A27.34,27.34,0,0,0,38,98.88a39.51,39.51,0,0,0,5.15,3,19.5,19.5,0,0,1,1.26-8.58s-.79,4.09,2,10A37.26,37.26,0,0,0,50,104.42a8.17,8.17,0,0,1-.1-3c.33-1.17,2.38,1,3.92,3.85a39.6,39.6,0,0,0,5.42.54,3.16,3.16,0,0,1-.53-1.62l1.75.76,1.75-.76a3.2,3.2,0,0,1-.53,1.62,39.48,39.48,0,0,0,5.42-.54c1.54-2.81,3.58-5,3.92-3.85a8,8,0,0,1-.1,3,37.34,37.34,0,0,0,3.59-1.16c2.74-5.87,2-10,2-10a19.5,19.5,0,0,1,1.26,8.58,39.51,39.51,0,0,0,5.15-3,27.34,27.34,0,0,0-1.74-20.3c2.84,8.28-1.84,17-1.84,17"/><path class="cls-1" d="M60.46,92.79c-.59,2-3,3.72-3,3.72,1.46.46,3,4,3,4s1.51-3.53,3-4c0,0-2.39-1.68-3-3.72"/><path class="cls-1" d="M94.88,76.81s-5.29-9-10.39-9.54l-1.57,7S89.9,85,87.6,94.86c0,0,8.13-12.18-1.38-24.75,0,0,7,3.68,8.47,16.07a39.47,39.47,0,0,0,4.57-11.84A32.62,32.62,0,0,0,95,63.82s2.1,8.39-.09,13"/><path class="cls-1" d="M91.21,41.21A38,38,0,0,0,88,37.75c-3.21-.72-7,1.67-7,1.67,1.69-.61,8.26,1.24,10.16,1.79"/><path class="cls-1" d="M21.3,63.53c-.63,2.66,0,7.73,0,7.73.92-6.36,5-15.88,5-15.88-3.52,2.59-5,8.14-5,8.14"/><path class="cls-1" d="M99.46,63.53S98,58,94.47,55.39c0,0,4.07,9.52,5,15.88,0,0,.64-5.07,0-7.73"/><path class="cls-1" d="M88.65,57.2c2.91,6.89,2.61,8.93,2.61,8.93-2.68-2.41-7.78-1.26-7.78-1.26,2.11,0,9.39,5.44,9.39,5.44,1-7.13-4.22-13.11-4.22-13.11"/><path class="cls-1" d="M89.34,63.09c-2-9.05-7.82-11.24-7.82-11.24a19.23,19.23,0,0,1,4.35,9.79c-2-.35-3.28,1.84-3.28,1.84,1.23-1.08,6.75-.39,6.75-.39"/><path class="cls-1" d="M60.46,48.08a16.9,16.9,0,0,0,0-18.65,16.9,16.9,0,0,0,0,18.65"/><path class="cls-1" d="M77.43,38.5,80.68,35s-8.58-7.09-16.82-4.49c0,0,8.9.71,13.58,8"/><path class="cls-1" d="M83,35.51c-2.34.35-4.56,4.29-4.56,4.29a47.57,47.57,0,0,1,7.23-4,8.31,8.31,0,0,0-.57-.67A12.25,12.25,0,0,0,81,32.25a13.48,13.48,0,0,0-3.53-1C82.22,33.55,83,35.51,83,35.51"/><path class="cls-1" d="M47.33,43.85c4.85-1,9.53,4.27,9.53,4.27-2.8-9.63,0-15.42,0-15.42-8,5.07-9.53,11.15-9.53,11.15"/><path class="cls-1" d="M73.49,43.85S72,37.78,64,32.7c0,0,2.8,5.79,0,15.42,0,0,4.68-5.26,9.53-4.27"/><path class="cls-1" d="M66.37,87.9l0,.26,2.38.3c-.57,2.2-2.11,2.34-7.58.76a6.32,6.32,0,0,1,2.19-4.81c1.36-1.32,2-1.84,2.91-2.61,1.31-1.12-.14-1.27-.51-1.27H55c-.37,0-1.82.15-.51,1.27.92.78,1.55,1.29,2.91,2.61a6.32,6.32,0,0,1,2.19,4.81c-5.47,1.58-7,1.45-7.59-.76l2.39-.3,0-.26L50.1,86.61c.24,4.3,1.79,5.57,5.6,4.76,1.68-.36,3.39-1,4.69.95,1.31-1.92,3-1.3,4.66-.95,3.81.81,5.36-.45,5.6-4.76L66.37,87.9m-5.6-3.05c-.13.24-.26.29-.38.26h0a.66.66,0,0,1-.3-.26,11.62,11.62,0,0,0-2.67-2.73c-.35-.27,0-.37,0-.37h5.93s.68,0,.08.45a9.6,9.6,0,0,0-2.64,2.66"/><path class="cls-1" d="M43.8,56.1c1-1.14,2.15-2.14,3.09-3.33a6.49,6.49,0,0,1,5.74-2.86,11.82,11.82,0,0,0,2.22-.31,6.47,6.47,0,0,0-4.33-3.32c-3.37-.72-5.85.6-8.06,4.25-1.57,2.6-3.26,5.13-4.86,7.63,2.07.11,4.41,0,6.21-2.07"/><path class="cls-1" d="M83.14,58.16c-1.66-2.73-3.29-5.47-5-8.16a22.55,22.55,0,0,0-2-2.64c-2-2.37-9.07-1.56-9.71,2.31,3.59-1,5.94.83,8,3.41.48.62,1.1,1.14,1.56,1.77a7.89,7.89,0,0,0,7.22,3.32"/><path class="cls-1" d="M48.08,81.39a5.11,5.11,0,0,0,5.08,3.79c-5-2.58-4-6.78-3.26-11.11-2.37,1-3.28-.32-4.12-2-2.32-4.54-2.41-9.33-2-14.31-.25.79-.57,1.56-.76,2.37-1.15,4.93-.09,9,1.84,13.51,1,2.4,3,2.29,3.25,7.73"/><path class="cls-1" d="M72.7,81.39c.23-5.44,2.21-5.32,3.25-7.73,1.93-4.49,3-8.58,1.84-13.51-.19-.8-.5-1.58-.76-2.37.38,5,.29,9.77-2,14.31-.84,1.65-1.75,3-4.12,2,.78,4.32,1.7,8.52-3.26,11.11a5.11,5.11,0,0,0,5.08-3.79"/><path class="cls-1" d="M54.46,64.08c.1-.11.12-.25-.41-.62-1.47-1-4.79-3.22-6.34-4.09,0,0-.51-.27-.24,0,1.43,1.54,3,3.69,3,3.69h-3.4s-1-.07-.24.54c1.37,1.06,2.74,3.17,4.4,3.09,2-.09,1.91,1.63,2,3.12.18,2.19.32,4.38.47,6.57l.66,0c-.31-3.51-.64-7-.9-10.52a5.3,5.3,0,0,1,.28-1.55s.54-.06.67-.21"/><path class="cls-1" d="M73.07,59.38c-1.56.87-4.87,3.06-6.34,4.09-.53.37-.51.5-.41.62s.67.21.67.21a5.32,5.32,0,0,1,.29,1.55c-.27,3.51-.6,7-.91,10.53l.66,0c.16-2.19.29-4.38.47-6.57.12-1.49,0-3.22,2-3.12,1.66.07,3-2,4.41-3.09.79-.61-.25-.54-.25-.54h-3.4s1.59-2.15,3-3.69c.26-.29-.24,0-.24,0"/><path class="cls-1" d="M56.28,55c.56,2.49,3.52,4,4.12,6.68C61,59,63.95,57.5,64.51,55a11.61,11.61,0,0,1-4.11,1.31A11.63,11.63,0,0,1,56.28,55"/></svg>